<svg xmlns="http://www.w3.org/2000/svg" width="600" height="600" viewBox="0 0 600 600"><rect width="600" height="600" fill="#1E634D"/><g transform="translate(120 98) scale(1)" fill="#FFFFFF">
    <rect x="0" y="0" width="26" height="140" rx="13"/><rect x="48" y="0" width="26" height="140" rx="13"/><rect x="96" y="0" width="26" height="140" rx="13"/>
    <path d="M0 120h122v20c0 40-24 60-42 66v170c0 16-12 28-19 28s-19-12-19-28V206c-18-6-42-26-42-66Z"/></g>
  <circle cx="380" cy="330" r="104" fill="#1E634D" stroke="#B6E86A" stroke-width="32"/>
  <path d="m336 332 32 32 62-72" stroke="#FFFFFF" stroke-width="32" stroke-linecap="round" stroke-linejoin="round" fill="none"/>
  <path d="m458 410 62 62" stroke="#B6E86A" stroke-width="46" stroke-linecap="round"/>
</svg>
